<?xml version="1.0" encoding="UTF-8"?>
<svg version="1.1" xmlns="http://www.w3.org/2000/svg" width="1200" height="1200">
<path d="M0 0 C9.26826165 4.26340036 13.81256161 16.04037232 18.5 24.5625 C23.23630046 33.10096916 28.05232568 41.5822563 33 50 C37.85019527 58.25840379 42.59007101 66.57026265 47.25 74.9375 C51.42827957 82.43886574 55.65835324 89.89697099 60.04321289 97.27929688 C63.99905781 103.95612268 67.84409796 110.69558809 71.6875 117.4375 C76.93394543 126.63924567 82.1994448 135.82925382 87.5 145 C92.6684122 153.94548565 97.81416352 162.90363462 102.9375 171.875 C103.26860779 172.45471558 103.59971558 173.03443115 103.94085693 173.63171387 C107.31521064 179.54016638 110.68690462 185.45013089 114.05583191 191.36167908 C115.74476211 194.32490498 117.43465122 197.28758312 119.125 200.25 C119.45746735 200.83276703 119.78993469 201.41553406 120.13247681 202.01596069 C124.74769243 210.10209693 129.4161144 218.15555079 134.125 226.1875 C139.44548507 235.26406401 144.61487254 244.41689395 149.73071289 253.61010742 C154.47772317 262.11970645 159.35722338 270.54705477 164.29492188 278.94726562 C167.60947353 284.58947396 170.85386187 290.26203909 174 296 C176.32119568 293.04461201 178.19667987 290.01125138 180.01171875 286.72265625 C180.59622803 285.6670752 181.1807373 284.61149414 181.78295898 283.52392578 C182.41145752 282.38165527 183.03995605 281.23938477 183.6875 280.0625 C184.35529147 278.85386096 185.02334684 277.64536769 185.69165039 276.43701172 C187.44761194 273.26033823 189.19994168 270.08167608 190.95141602 266.90252686 C192.62705282 263.86228968 194.30584011 260.823794 195.984375 257.78515625 C198.98364127 252.35432326 201.97978439 246.92177433 204.97453308 241.4884491 C207.31669995 237.2391666 209.6599007 232.990456 212.00390625 228.7421875 C212.33388611 228.14410278 212.66386597 227.54601807 213.00384521 226.92980957 C214.66514452 223.91883772 216.32674157 220.90803064 217.98876953 217.89746094 C221.39067094 211.73452652 224.78749675 205.56886996 228.17578125 199.3984375 C231.49967383 193.34571939 234.84088081 187.3028257 238.19287109 181.265625 C239.88687747 178.20442136 241.56320314 175.13408514 243.23828125 172.0625 C244.1993717 170.33269437 245.16152698 168.60347971 246.125 166.875 C246.53790283 166.10526855 246.95080566 165.33553711 247.3762207 164.54248047 C249.91448136 160.05135232 251.93650167 157.77054776 257 156 C260.81607228 155.29613133 264.15930042 155.63697063 267.75 157.1875 C272.05088116 160.65209871 274.70917012 165.00928434 277.328125 169.8125 C277.95460938 170.95525391 278.58109375 172.09800781 279.2265625 173.27539062 C279.90108018 174.51690616 280.57555825 175.75844322 281.25 177 C281.96042644 178.29910773 282.67137352 179.59793087 283.3828125 180.89648438 C284.85943919 183.59265313 286.33382504 186.29002887 287.80664062 188.98828125 C290.85703925 194.57272273 293.93461534 200.14211685 297.01208496 205.71166992 C298.67601808 208.72373223 300.33789783 211.73692709 302 214.75 C302.66665699 215.95833867 303.33332365 217.16667201 304 218.375 C337 278.1875 370 338 420 428.625 C420.32999496 429.22311493 420.65998993 429.82122986 420.99998474 430.43746948 C421.6667055 431.64590276 422.33342303 432.85433782 423.00013733 434.06277466 C424.66594998 437.08209344 426.33181854 440.10138134 427.99780273 443.12060547 C431.00799916 448.5760434 434.01792352 454.03162956 437.02542114 459.48855591 C437.69860038 460.70976779 438.3720013 461.9308575 439.04562378 463.15182495 C440.7130053 466.17429118 442.37736215 469.19833749 444.03515625 472.22607422 C447.04602727 477.71546476 450.08468442 483.18122796 453.25254822 488.5819397 C454.6749057 491.00931109 456.08062819 493.44613953 457.48580933 495.88348389 C458.4671299 497.56855716 459.47352879 499.23894826 460.48071289 500.90869141 C464.39570669 507.71520672 466.21731275 513.11713701 465 521 C463.75798224 524.04294352 462.98411507 525.38774621 460.22341 527.10528127 C457.56143813 528.17648095 455.54396631 528.25121851 452.67543995 528.25299966 C451.58719156 528.25851915 450.49894317 528.26403864 449.37771755 528.26972538 C448.18026423 528.26561475 446.98281091 528.26150411 445.74907112 528.25726891 C443.83529379 528.26252802 443.83529379 528.26252802 441.88285428 528.26789337 C438.32319766 528.27738141 434.76364296 528.27434107 431.20398122 528.26933783 C427.3382358 528.26608036 423.47251261 528.27434607 419.60677421 528.28115618 C412.82546464 528.29148102 406.04418363 528.29429568 399.26286697 528.29224396 C389.17891805 528.28920042 379.09500086 528.29750353 369.01105809 528.30799321 C349.95557475 528.32736089 330.90010214 528.33296245 311.84461011 528.33410732 C297.13270121 528.33502546 282.42079654 528.3391372 267.70888901 528.34550858 C263.47819929 528.34730359 259.24750956 528.34908321 255.01681983 528.35085833 C253.96514018 528.35130043 252.91346052 528.35174252 251.82991179 528.35219802 C222.23799846 528.36451075 192.64608661 528.3723987 163.05417061 528.37151146 C161.93790935 528.3714803 160.82164809 528.37144914 159.67156073 528.37141704 C154.01353365 528.37125082 148.35550658 528.37105274 142.6974795 528.37084763 C141.57371954 528.37080774 140.44995957 528.37076785 139.29214627 528.37072675 C137.01962906 528.37064587 134.74711185 528.37056228 132.47459464 528.37047596 C97.10853494 528.36925013 61.74251357 528.38426785 26.37646484 528.41162109 C-13.33146168 528.44231963 -53.03936303 528.45955495 -92.74730217 528.45769465 C-96.97862061 528.45754538 -101.20993904 528.45744797 -105.44125748 528.45738602 C-106.4831624 528.45736271 -107.52506732 528.4573394 -108.59854512 528.45731538 C-125.38994102 528.45725375 -142.18130374 528.47004369 -158.97268976 528.48725055 C-175.83816386 528.50417629 -192.70358923 528.5062049 -209.56906711 528.4930319 C-219.59701774 528.48562239 -229.62482065 528.48936019 -239.65275574 528.50891658 C-246.34462364 528.52086777 -253.03638394 528.51838001 -259.72824679 528.50397559 C-263.54542607 528.49617123 -267.36231839 528.49477857 -271.17947803 528.51089029 C-275.28567614 528.52807091 -279.3911893 528.51452236 -283.49738884 528.49777794 C-284.69015983 528.5077143 -285.88293082 528.51765066 -287.11184639 528.52788812 C-293.36539444 528.47353773 -297.27304174 528.26286093 -302 524 C-304.23896497 521.15040821 -304.46879425 518.0585318 -304.42919922 514.47558594 C-303.47592665 508.97718785 -300.16087035 504.25162826 -297.375 499.5 C-296.68809507 498.30046506 -296.00265194 497.10009197 -295.31860352 495.89892578 C-293.56891223 492.83729127 -291.79871241 489.788172 -290.01922607 486.74377441 C-288.46790223 484.0896441 -286.92436211 481.43098781 -285.37890625 478.7734375 C-283.65798537 475.82023429 -281.93396826 472.86898818 -280.20263672 469.921875 C-276.04154033 462.83199343 -271.9971633 455.68342097 -268 448.5 C-262.86374835 439.27065229 -257.59787376 430.12762875 -252.25 421.01953125 C-248.07756041 413.8947181 -244.01504756 406.71453859 -240 399.5 C-234.86368611 390.27068598 -229.59787465 381.12763027 -224.25 372.01953125 C-220.07756041 364.8947181 -216.01504756 357.71453859 -212 350.5 C-206.86368611 341.27068598 -201.59787465 332.12763027 -196.25 323.01953125 C-192.07756041 315.8947181 -188.01504756 308.71453859 -184 301.5 C-178.86368611 292.27068598 -173.59787465 283.12763027 -168.25 274.01953125 C-164.07756041 266.8947181 -160.01504756 259.71453859 -156 252.5 C-150.86368611 243.27068598 -145.59787465 234.12763027 -140.25 225.01953125 C-136.07756041 217.8947181 -132.01504756 210.71453859 -128 203.5 C-122.86368611 194.27068598 -117.59787465 185.12763027 -112.25 176.01953125 C-108.07756041 168.8947181 -104.01504756 161.71453859 -100 154.5 C-94.86368611 145.27068598 -89.59787465 136.12763027 -84.25 127.01953125 C-80.07756041 119.8947181 -76.01504756 112.71453859 -72 105.5 C-66.86368611 96.27068598 -61.59787465 87.12763027 -56.25 78.01953125 C-52.07755761 70.89471334 -48.01524256 63.71443358 -44 56.5 C-38.21837705 46.1170742 -32.29673236 35.82424986 -26.26953125 25.58203125 C-24.1704142 22.01433042 -22.10456451 18.43147799 -20.07421875 14.82421875 C-19.40084473 13.64085937 -19.40084473 13.64085937 -18.71386719 12.43359375 C-17.8934841 10.98992038 -17.08213549 9.541055 -16.28222656 8.0859375 C-12.39498398 1.29967579 -7.86136226 -1.33348551 0 0 Z M-4 38 C-4.36125977 38.64735107 -4.72251953 39.29470215 -5.09472656 39.96166992 C-12.78067394 53.72767263 -20.5171559 67.461571 -28.36035156 81.13867188 C-31.49571267 86.61014778 -34.62212268 92.08674358 -37.75 97.5625 C-45.31795772 110.81118602 -45.31795772 110.81118602 -49.06942749 117.35865784 C-50.75535957 120.30118101 -52.44041628 123.24420472 -54.125 126.1875 C-54.62329315 127.05805527 -54.62329315 127.05805527 -55.13165283 127.94619751 C-59.84596748 136.1865718 -64.5031497 144.45741762 -69.125 152.75 C-75.38127346 163.96903331 -81.83091126 175.06811828 -88.33056641 186.14746094 C-91.02765421 190.75593913 -93.70213259 195.37744454 -96.375 200 C-96.84574951 200.81388184 -97.31649902 201.62776367 -97.80151367 202.46630859 C-98.8680306 204.31066727 -99.93407588 206.15529866 -101 208 C-95.25911114 215.02305029 -88.80306544 221.3234361 -82.3828125 227.71484375 C-81.15805511 228.93773316 -79.93352047 230.1608457 -78.709198 231.38417053 C-75.50571366 234.58385956 -72.29923634 237.78053248 -69.09210205 240.9765625 C-65.81217384 244.246212 -62.53511874 247.5187384 -59.2578125 250.79101562 C-52.84133235 257.19681119 -46.421683 263.59942049 -40 270 C-37.04843855 268.68428587 -35.12567136 267.32741758 -32.98123169 264.91893005 C-32.41114883 264.28656433 -31.84106598 263.65419861 -31.25370789 263.00267029 C-30.63905167 262.3101265 -30.02439545 261.6175827 -29.39111328 260.90405273 C-28.02595458 259.3895816 -26.65944368 257.87632855 -25.29177856 256.36412048 C-24.56630955 255.56066633 -23.84084053 254.75721218 -23.0933876 253.92941093 C-18.36840883 248.74142432 -13.53859304 243.65064205 -8.71847725 238.55119228 C-4.51289812 234.09070921 -0.35706958 229.5999635 3.70605469 225.0090332 C33.22598077 191.76271641 33.22598077 191.76271641 54.99628639 190.20755482 C65.06102339 189.84593516 75.03766571 190.60450336 85 192 C84.06774263 190.11449456 83.13300667 188.23021453 82.19726562 186.34643555 C81.67700806 185.29699265 81.15675049 184.24754974 80.62072754 183.16630554 C78.1111695 178.26355209 75.31366496 173.54512147 72.5 168.8125 C67.61072667 160.51074529 62.81235571 152.16742512 58.125 143.75 C53.17484556 134.86699866 48.17635341 126.01328761 43.125 117.1875 C42.62595154 116.31531326 42.62595154 116.31531326 42.11682129 115.42550659 C39.74610949 111.2827758 37.37331544 107.14123961 35 103 C32.29022135 98.27165986 29.58145531 93.54274332 26.875 88.8125 C26.54494965 88.23575531 26.21489929 87.65901062 25.87484741 87.06478882 C20.45067076 77.58216839 15.09018422 68.06504666 9.77880859 58.51879883 C8.19384285 55.6746416 6.59846453 52.8365899 5 50 C4.37754395 48.88367188 3.75508789 47.76734375 3.11376953 46.6171875 C2.17766846 44.96589844 2.17766846 44.96589844 1.22265625 43.28125 C0.65426025 42.27126953 0.08586426 41.26128906 -0.49975586 40.22070312 C-0.99483643 39.48787109 -1.48991699 38.75503906 -2 38 C-2.66 38 -3.32 38 -4 38 Z M260 195 C259.55309814 195.84892822 259.10619629 196.69785645 258.64575195 197.57250977 C250.65642288 212.7366198 242.65413651 227.87777168 234.11254883 242.74047852 C232.72823616 245.15300688 231.36147548 247.57453169 230 250 C229.56768066 250.74378906 229.13536133 251.48757813 228.68994141 252.25390625 C227.35912711 254.5762018 227.35912711 254.5762018 226 258 C227.19547778 261.72261508 229.8350948 264.06503031 232.5703125 266.765625 C233.91416016 268.09980469 233.91416016 268.09980469 235.28515625 269.4609375 C236.22230469 270.38132812 237.15945313 271.30171875 238.125 272.25 C239.07988637 273.19484856 240.03431859 274.14015633 240.98828125 275.0859375 C243.32109087 277.39518338 245.65844086 279.69963203 248 282 C251.18259851 280.59490901 253.31348466 278.93078658 255.75878906 276.46826172 C256.47923401 275.74766571 257.19967896 275.0270697 257.94195557 274.28463745 C258.70876648 273.50750397 259.47557739 272.73037048 260.265625 271.9296875 C261.45572174 270.73534592 261.45572174 270.73534592 262.66986084 269.51687622 C265.20130703 266.97424052 267.72570803 264.42473652 270.25 261.875 C271.96568617 260.14928247 273.68182662 258.42401645 275.3984375 256.69921875 C279.60424248 252.47136968 283.80428507 248.23786131 288 244 C282.80708036 233.42602409 277.36703636 223.03524495 271.625 212.75 C270.55715841 210.83059466 269.49028355 208.91065766 268.42416382 206.99029541 C267.47412482 205.28000134 266.52157068 203.57110507 265.56884766 201.86230469 C264.32625385 199.59523812 263.13219981 197.32343425 262 195 C261.34 195 260.68 195 260 195 Z M6.34909534 255.19362545 C1.47778373 260.6114528 -3.53958669 265.8851485 -8.57020378 271.15467072 C-18.8762618 281.95647511 -28.99735951 292.9160096 -39 304 C-41.88330643 302.69316301 -43.94564108 301.30277863 -46.17645264 299.0640564 C-46.77935623 298.46390213 -47.38225983 297.86374786 -48.00343323 297.2454071 C-48.65295456 296.58869522 -49.30247589 295.93198334 -49.97167969 295.25537109 C-50.6647673 294.56257553 -51.35785492 293.86977997 -52.07194519 293.1559906 C-54.36002799 290.86651526 -56.64094651 288.5700387 -58.921875 286.2734375 C-60.5075592 284.68402291 -62.09368574 283.09504952 -63.68023682 281.50650024 C-67.85377854 277.32532415 -72.02127917 273.13817654 -76.18756104 268.94976807 C-80.44042719 264.67643937 -84.69896419 260.40877027 -88.95703125 256.140625 C-97.31025559 247.76595419 -105.65711048 239.38496557 -114 231 C-116.07781589 233.73252405 -117.89907661 236.43924521 -119.57421875 239.4375 C-120.3153894 240.75754028 -120.3153894 240.75754028 -121.0715332 242.10424805 C-121.87143677 243.53764526 -121.87143677 243.53764526 -122.6875 245 C-123.86135037 247.090197 -125.03585845 249.18002474 -126.2109375 251.26953125 C-126.82936523 252.36990723 -127.44779297 253.4702832 -128.08496094 254.60400391 C-131.30377879 260.31202996 -134.55782214 265.99987135 -137.8125 271.6875 C-138.48984885 272.87173256 -139.16717618 274.05597744 -139.84448242 275.24023438 C-141.21332351 277.63342566 -142.58242113 280.02646997 -143.95166016 282.41943359 C-145.97286293 285.95212363 -147.99255045 289.48567806 -150.01171875 293.01953125 C-150.3411145 293.59602417 -150.67051025 294.17251709 -151.0098877 294.76647949 C-152.00661816 296.51097127 -153.00331569 298.25548185 -154 300 C-157.69089979 306.4602619 -161.3818899 312.92046911 -165.07699585 319.37832642 C-171.57675161 330.73790372 -178.06929892 342.10111844 -184.5 353.5 C-191.26994163 365.5002099 -198.10898003 377.46062849 -204.95166016 389.41943359 C-207.97100679 394.69669519 -210.98690319 399.97592816 -214.00302124 405.2550354 C-215.6685358 408.17010647 -217.33427963 411.08504653 -219 414 C-219.66666776 415.16666604 -220.33333443 416.33333271 -221 417.5 C-222.33333333 419.83333333 -223.66666667 422.16666667 -225 424.5 C-225.32998993 425.07748489 -225.65997986 425.65496979 -225.99996948 426.24995422 C-226.66672911 427.41677849 -227.3334975 428.58359774 -228.00027466 429.75041199 C-229.66559088 432.66462646 -231.33075537 435.57892742 -232.99560547 438.4934082 C-236.01148159 443.7726438 -239.02850311 449.05120881 -242.05110168 454.32659912 C-256.49673718 478.90727224 -256.49673718 478.90727224 -270 504 C-94.77 504 80.46 504 261 504 C259.53223527 500.33058818 258.08247516 497.18873692 256.1640625 493.78125 C255.60090332 492.77795654 255.03774414 491.77466309 254.45751953 490.7409668 C253.55042236 489.13668823 253.55042236 489.13668823 252.625 487.5 C251.99577637 486.38214111 251.36655273 485.26428223 250.71826172 484.11254883 C245.39799165 474.67299226 240.02994735 465.26102503 234.63964844 455.86132812 C231.84425074 450.98311773 229.05629125 446.10065746 226.26751709 441.21865845 C224.558845 438.22763672 222.84971026 435.23687939 221.140625 432.24609375 C220.44856552 431.03499474 219.75650823 429.82389448 219.06445312 428.61279297 C218.55168823 427.71545441 218.55168823 427.71545441 218.02856445 426.79998779 C176.51428223 354.1499939 176.51428223 354.1499939 135 281.5 C134.67004532 280.92258057 134.34009064 280.34516113 134.00013733 279.75024414 C133.33300852 278.58276618 132.66588409 277.4152857 131.99876404 276.24780273 C130.33920402 273.34352843 128.67955282 270.43930632 127.01977539 267.53515625 C123.93518114 262.13778036 120.85121632 256.74004948 117.76986694 251.34082031 C116.33701567 248.83024107 114.90375148 246.31989768 113.47045898 243.80957031 C112.47665167 242.06858714 111.48343097 240.32726915 110.49023438 238.5859375 C107.37557843 233.13122133 104.24846618 227.68392417 101.09765625 222.25 C100.24119507 220.77273438 100.24119507 220.77273438 99.36743164 219.265625 C98.1900749 217.11007419 98.1900749 217.11007419 97 216 C54.56550261 206.87238298 33.02400674 225.46755024 6.34909534 255.19362545 Z M300 266 C283.5 282.5 267 299 250 316 C246.66074612 314.33037306 245.11017463 313.35708077 242.60839844 310.83544922 C241.9680365 310.19493622 241.32767456 309.55442322 240.66790771 308.89450073 C239.98859192 308.20486237 239.30927612 307.515224 238.609375 306.8046875 C237.90476135 306.09724396 237.20014771 305.38980042 236.47418213 304.66091919 C234.2280461 302.40360138 231.98896991 300.13942367 229.75 297.875 C228.22702283 296.34199047 226.70359061 294.80943285 225.1796875 293.27734375 C221.44783185 289.52345427 217.72174649 285.76391086 214 282 C211.19223014 284.67951042 209.51313285 287.39806313 207.63671875 290.8125 C207.32225296 291.38145996 207.00778717 291.95041992 206.68379211 292.53662109 C205.68020222 294.35513784 204.68378066 296.17747059 203.6875 298 C202.70354145 299.7865914 201.71819826 301.57241376 200.73269653 303.3581543 C199.76852835 305.11260886 198.81464194 306.87270095 197.86083984 308.6328125 C196.65320044 310.81803457 195.40535678 312.98169183 194.11181641 315.1171875 C193.5451123 316.06851563 192.9784082 317.01984375 192.39453125 318 C191.8838208 318.825 191.37311035 319.65 190.84692383 320.5 C189.66121949 324.00003242 190.52549237 325.66312513 192 329 C193.00587224 330.95884816 194.06580272 332.89054472 195.16796875 334.796875 C195.80605469 335.90675781 196.44414063 337.01664062 197.1015625 338.16015625 C197.79678477 339.35682326 198.49209975 340.55343641 199.1875 341.75 C199.91065362 343.00361947 200.63330176 344.25753066 201.35546875 345.51171875 C203.20855043 348.72722947 205.06774906 351.93915618 206.9286499 355.15014648 C208.56658711 357.97830128 210.1992938 360.80946594 211.83203125 363.640625 C213.67200739 366.83105577 215.51230172 370.02129642 217.35449219 373.21044922 C221.90310085 381.08669918 226.42705338 388.97685299 230.9375 396.875 C231.43416168 397.74457336 231.43416168 397.74457336 231.94085693 398.63171387 C235.31521064 404.54016638 238.68690462 410.45013089 242.05583191 416.36167908 C243.74476211 419.32490498 245.43465122 422.28758312 247.125 425.25 C247.45746735 425.83276703 247.78993469 426.41553406 248.13247681 427.01596069 C253.30832156 436.08435298 258.55942368 445.10689631 263.84106445 454.11401367 C268.08853436 461.3807475 272.2182402 468.70851791 276.3125 476.0625 C283.51230025 490.82314494 283.51230025 490.82314494 293 504 C294.79694038 504.09639184 296.59770893 504.12187425 298.39723206 504.12025452 C299.56817413 504.12162918 300.73911621 504.12300385 301.94554138 504.12442017 C303.24169876 504.12082489 304.53785614 504.11722961 305.87329102 504.11352539 C307.24287921 504.11324352 308.61246756 504.11340125 309.98205566 504.1139679 C313.71122948 504.11425588 317.44037141 504.10835909 321.16953778 504.10139394 C325.06264413 504.09516047 328.95575113 504.09455661 332.84886169 504.09336853 C340.22598146 504.09025519 347.60308649 504.08204178 354.98019975 504.07201904 C363.37667543 504.06085797 371.77315179 504.05534747 380.16963303 504.05032361 C397.44643056 504.03985916 414.72321372 504.02225968 432 504 C431.06343809 502.1109054 430.12499742 500.22274217 429.18579102 498.33496094 C428.66340347 497.28338806 428.14101593 496.23181519 427.60279846 495.14837646 C425.1993233 490.42723104 422.57731102 485.84183009 419.9375 481.25 C415.35736493 473.21893366 410.87878256 465.14255638 406.5 457 C402.2562685 449.11376952 397.92935261 441.28349035 393.5 433.5 C388.43714305 424.60162221 383.51870058 415.63341555 378.65966797 406.62231445 C374.30836928 398.55513022 369.88001844 390.53428227 365.41210938 382.53125 C354.20677812 362.44534501 343.09135413 342.31001042 331.98962402 322.16674805 C327.9972703 314.92309864 324.0032942 307.68035449 320.00382996 300.44062805 C318.29132598 297.34030382 316.5805277 294.23905559 314.87255859 291.13623047 C313.12596982 287.96325052 311.37613828 284.7920798 309.62405396 281.62213135 C308.96323821 280.42516607 308.30361134 279.2275436 307.64523315 278.02923584 C306.73800686 276.37842491 305.82614833 274.73016222 304.9140625 273.08203125 C304.3979541 272.14593018 303.8818457 271.2098291 303.35009766 270.24536133 C302.06585356 267.90477303 302.06585356 267.90477303 300 266 Z " fill="#000000" transform="translate(521,156)"/>
<path d="M0 0 C11.92878462 10.29588183 20.89030944 24.94202138 22.3125 40.875 C23.5641037 60.05973792 19.82456785 77.31629485 6.9375 92.25 C-5.29987394 105.00328347 -19.96125045 112.78861731 -37.74658203 113.22680664 C-46.37822757 113.29487955 -54.6370111 113.31820758 -62.6875 109.875 C-64.37552734 109.16150391 -64.37552734 109.16150391 -66.09765625 108.43359375 C-74.12737022 104.82621318 -80.53515242 100.20439356 -86.6875 93.875 C-87.32171875 93.26140625 -87.9559375 92.6478125 -88.609375 92.015625 C-100.56144866 79.64046909 -104.17824645 63.24507992 -104.03930664 46.59570312 C-103.56132312 28.19085677 -95.74412787 13.53306043 -82.6875 0.75 C-58.81135549 -19.50979216 -24.35254137 -18.65229276 0 0 Z M-74.8984375 24.453125 C-81.17816576 32.95406718 -84.92197935 43.20832685 -83.6875 53.875 C-81.35854657 66.12020043 -75.73217107 76.85751143 -65.375 84.0625 C-55.13719721 90.50852398 -45.0577649 93.45230565 -32.94921875 91.4140625 C-23.84181854 89.22416429 -15.90085538 84.97597758 -9.6875 77.875 C-8.8625 76.988125 -8.0375 76.10125 -7.1875 75.1875 C0.92423291 65.30453427 2.47331585 54.22788972 1.3125 41.875 C-0.14418474 35.52747738 -2.69834307 30.03743838 -6.6875 24.875 C-7.08324219 24.32457031 -7.47898437 23.77414062 -7.88671875 23.20703125 C-13.74062846 15.60869 -23.15240493 9.45711948 -32.6875 7.875 C-49.84337457 6.43785868 -63.60878711 11.04947633 -74.8984375 24.453125 Z " fill="#000000" transform="translate(1142.6875,827.125)"/>
<path d="M0 0 C0 8.25 0 16.5 0 25 C-4.54485789 23.18205684 -8.94758745 21.19232043 -13.37890625 19.12109375 C-21.88902071 15.48114912 -33.21394029 15.64712764 -41.9375 18.625 C-53.64819786 23.64637869 -62.06652034 31.1523464 -66.98828125 43.0234375 C-70.81865091 54.29271041 -70.80466574 65.05153397 -65.59765625 75.9296875 C-64.16837231 78.38092765 -62.64977148 80.69296663 -61 83 C-60.401875 83.9075 -59.80375 84.815 -59.1875 85.75 C-51.04467649 94.12547561 -39.44916212 99.04373716 -27.8125 99.25 C-22.86982389 99.22324668 -18.74140856 98.28594846 -14.09375 96.65625 C-12 96 -12 96 -9 96 C-9 88.74 -9 81.48 -9 74 C-16.92 74 -24.84 74 -33 74 C-33 67.4 -33 60.8 -33 54 C-26.75198914 53.97709487 -20.50412285 53.95716661 -14.25610352 53.94506836 C-12.12881986 53.94002702 -10.00153969 53.93319409 -7.87426758 53.92456055 C-4.82372174 53.91248621 -1.77322155 53.90676986 1.27734375 53.90234375 C2.71327126 53.89460182 2.71327126 53.89460182 4.1782074 53.88670349 C5.05904495 53.88662796 5.93988251 53.88655243 6.84741211 53.88647461 C7.62684677 53.884254 8.40628143 53.88203339 9.20933533 53.87974548 C11 54 11 54 12 55 C12.15078027 56.61838908 12.23331615 58.24320105 12.28808594 59.86767578 C12.34122955 61.4253215 12.34122955 61.4253215 12.39544678 63.01443481 C12.51916759 67.78762125 12.61004452 72.56068612 12.6796875 77.33496094 C12.7263724 79.85140695 12.79456132 82.36755044 12.88476562 84.8828125 C13.01263065 88.50883568 13.06826026 92.12989197 13.109375 95.7578125 C13.16301208 96.87785675 13.21664917 97.997901 13.27191162 99.15188599 C13.26444833 102.44423061 13.13165924 104.90325777 12 108 C8.68474631 111.12184803 5.10980792 113.08849986 1 115 C0.33032196 115.32274902 -0.33935608 115.64549805 -1.02932739 115.97802734 C-2.61341751 116.6847392 -4.24378268 117.28515833 -5.875 117.875 C-6.92429687 118.26429688 -7.97359375 118.65359375 -9.0546875 119.0546875 C-25.02189552 124.17944127 -43.65676979 121.91691726 -58.38623047 114.41723633 C-73.25395444 106.33046806 -83.87239168 93.0270026 -89 76.9375 C-94.25680304 58.61408573 -91.23070909 40.37268092 -82.28515625 23.8359375 C-74.00822527 9.43044954 -60.59858592 1.09255342 -45.25390625 -4.125 C-29.88772573 -8.25708216 -14.44616989 -6.19121567 0 0 Z " fill="#000000" transform="translate(1009,819)"/>
<path d="M0 0 C56.29192547 0 56.29192547 0 68.03515625 10.88671875 C76.43979227 19.96943581 79.3985095 30.17762481 79.3125 42.375 C79.30686035 43.21281006 79.3012207 44.05062012 79.29541016 44.91381836 C79.07537732 56.12133253 75.78748734 65.75043782 68.04296875 74.11328125 C64.19624369 77.66580172 61.07299292 79.50116118 56 81 C63.16040879 91.24145007 70.66519862 101.19889394 78.265625 111.1171875 C78.89275391 111.93928711 79.51988281 112.76138672 80.16601562 113.60839844 C81.37293776 115.18228146 82.59016504 116.74832419 83.81835938 118.30566406 C84.36814453 119.01174805 84.91792969 119.71783203 85.484375 120.4453125 C85.97131836 121.06164551 86.45826172 121.67797852 86.95996094 122.31298828 C88 124 88 124 88 127 C68.02249375 128.77153875 68.02249375 128.77153875 61.9609375 125.21875 C60.0984803 122.88888077 58.57452352 120.54405042 57.140625 117.93115234 C54.75426248 113.89088532 51.76425169 110.23827536 48.9375 106.5 C42.25318087 97.55097135 42.25318087 97.55097135 39.81640625 93.3671875 C37.88096704 89.96100276 37.88096704 89.96100276 34 86 C27.07 85.505 27.07 85.505 20 85 C20 98.86 20 112.72 20 127 C13.4 127 6.8 127 0 127 C0 85.09 0 43.18 0 0 Z M20 20 C20 35.18 20 50.36 20 66 C38.10779783 67.03411456 38.10779783 67.03411456 54 60 C60.02537607 53.47250925 60.54230896 47.29677963 60.3125 38.67578125 C59.77825094 32.39167663 57.7453521 28.35626981 53.125 24.125 C46.21324216 19.42500467 39.7037345 19.75224929 31.625 19.875 C25.870625 19.936875 25.870625 19.936875 20 20 Z " fill="#000000" transform="translate(158,813)"/>
<path d="M0 0 C6.6 0 13.2 0 20 0 C20 17.82 20 35.64 20 54 C36.17 54 52.34 54 69 54 C69 36.18 69 18.36 69 0 C75.93 0 82.86 0 90 0 C90 41.91 90 83.82 90 127 C83.07 127 76.14 127 69 127 C69 109.18 69 91.36 69 73 C52.83 73 36.66 73 20 73 C20 90.82 20 108.64 20 127 C13.4 127 6.8 127 0 127 C0 85.09 0 43.18 0 0 Z " fill="#000000" transform="translate(369,813)"/>
<path d="M0 0 C25.08 0 50.16 0 76 0 C76 6.6 76 13.2 76 20 C57.52 20 39.04 20 20 20 C20 30.23 20 40.46 20 51 C35.18 51 50.36 51 66 51 C66 57.6 66 64.2 66 71 C50.82 71 35.64 71 20 71 C20 83.21 20 95.42 20 108 C38.48 108 56.96 108 76 108 C76 114.27 76 120.54 76 127 C50.92 127 25.84 127 0 127 C0 85.09 0 43.18 0 0 Z " fill="#000000" transform="translate(625,813)"/>
<path d="M0 0 C3.46170411 2.74497223 4.6872341 6.57893614 6.265625 10.55859375 C6.57545822 11.32147202 6.88529144 12.08435028 7.20451355 12.87034607 C7.87468002 14.52279611 8.54139411 16.17664956 9.20504761 17.83172607 C10.62779429 21.37959701 12.06712806 24.92066311 13.50535583 28.46228027 C14.24805814 30.29176097 14.98988024 32.12159923 15.73085022 33.95178223 C19.24086521 42.61764825 22.8298638 51.24942126 26.4375 59.875 C27.66328898 62.80967527 28.88834488 65.74465626 30.11328125 68.6796875 C30.42201172 69.41923172 30.73074219 70.15877594 31.04882812 70.92073059 C35.81302842 82.33808597 40.54349283 93.76947535 45.27905273 105.19873047 C45.62079025 106.02331757 45.96252777 106.84790466 46.31462097 107.69747925 C46.97525772 109.29211277 47.6354384 110.88693532 48.29512024 112.48196411 C49.71762381 115.91925207 51.14582424 119.35356837 52.60058594 122.77734375 C53.05981445 123.86144531 53.51904297 124.94554687 53.9921875 126.0625 C54.58169189 127.44115234 54.58169189 127.44115234 55.18310547 128.84765625 C56 131 56 131 56 133 C48.41 133 40.82 133 33 133 C31.32904851 129.04342559 29.66306325 125.08488843 28 121.125 C27.52304687 119.99707031 27.04609375 118.86914062 26.5546875 117.70703125 C26.10351562 116.63066406 25.65234375 115.55429687 25.1875 114.4453125 C24.76855469 113.45031738 24.34960938 112.45532227 23.91796875 111.43017578 C23 109 23 109 23 107 C8.48 107.33 -6.04 107.66 -21 108 C-24.3 116.25 -27.6 124.5 -31 133 C-38.59 133 -46.18 133 -54 133 C-53.15051537 127.90309219 -51.88983824 123.92454761 -49.8515625 119.28125 C-49.36561111 118.15095116 -49.36561111 118.15095116 -48.86984253 116.99781799 C-48.16490509 115.35927406 -47.45712188 113.72195217 -46.74682617 112.08572388 C-44.79789203 107.59357912 -42.87254236 103.0913328 -40.9453125 98.58984375 C-40.54004333 97.64443222 -40.13477417 96.69902069 -39.71722412 95.72496033 C-35.21791618 85.20942574 -30.85327227 74.63913827 -26.5 64.0625 C-25.71072508 62.14630855 -24.92141844 60.23013016 -24.13208008 58.31396484 C-22.94794588 55.43903134 -21.76395951 52.56403745 -20.58045959 49.68884277 C-16.1767332 38.9930494 -11.74534932 28.30874864 -7.3125 17.625 C-6.56769713 15.82951311 -5.82290511 14.03402172 -5.078125 12.23852539 C-3.38576135 8.15887383 -1.69301259 4.07938229 0 0 Z M0 53 C-1.85584011 57.51886436 -3.70713411 62.0395535 -5.55419922 66.56201172 C-6.18347884 68.10093664 -6.81400811 69.63935118 -7.44580078 71.17724609 C-8.35255984 73.38506917 -9.25484123 75.59467556 -10.15625 77.8046875 C-10.44060913 78.49432587 -10.72496826 79.18396423 -11.01794434 79.89450073 C-12.49977165 83.33551611 -12.49977165 83.33551611 -13 87 C-3.76 87 5.48 87 15 87 C12.64875 80.8125 12.64875 80.8125 10.25 74.5 C9.7643457 73.21544922 9.27869141 71.93089844 8.77832031 70.60742188 C6.46508721 64.55800675 4.03230293 58.7245345 1 53 C0.67 53 0.34 53 0 53 Z " fill="#000000" transform="translate(859,807)"/>
<path d="M0 0 C3.46170411 2.74497223 4.6872341 6.57893614 6.265625 10.55859375 C6.57545822 11.32147202 6.88529144 12.08435028 7.20451355 12.87034607 C7.87468002 14.52279611 8.54139411 16.17664956 9.20504761 17.83172607 C10.62779429 21.37959701 12.06712806 24.92066311 13.50535583 28.46228027 C14.24805814 30.29176097 14.98988024 32.12159923 15.73085022 33.95178223 C19.24086521 42.61764825 22.8298638 51.24942126 26.4375 59.875 C27.66328898 62.80967527 28.88834488 65.74465626 30.11328125 68.6796875 C30.42201172 69.41923172 30.73074219 70.15877594 31.04882812 70.92073059 C35.81302842 82.33808597 40.54349283 93.76947535 45.27905273 105.19873047 C45.62079025 106.02331757 45.96252777 106.84790466 46.31462097 107.69747925 C46.97525772 109.29211277 47.6354384 110.88693532 48.29512024 112.48196411 C49.71762381 115.91925207 51.14582424 119.35356837 52.60058594 122.77734375 C53.05981445 123.86144531 53.51904297 124.94554687 53.9921875 126.0625 C54.58169189 127.44115234 54.58169189 127.44115234 55.18310547 128.84765625 C56 131 56 131 56 133 C48.41 133 40.82 133 33 133 C31.32904851 129.04342559 29.66306325 125.08488843 28 121.125 C27.52304688 119.99707031 27.04609375 118.86914062 26.5546875 117.70703125 C26.10351562 116.63066406 25.65234375 115.55429687 25.1875 114.4453125 C24.76855469 113.45031738 24.34960938 112.45532227 23.91796875 111.43017578 C23 109 23 109 23 107 C8.48 107.33 -6.04 107.66 -21 108 C-24.3 116.25 -27.6 124.5 -31 133 C-38.59 133 -46.18 133 -54 133 C-53.15051537 127.90309219 -51.88983824 123.92454761 -49.8515625 119.28125 C-49.36561111 118.15095116 -49.36561111 118.15095116 -48.86984253 116.99781799 C-48.16490509 115.35927406 -47.45712188 113.72195217 -46.74682617 112.08572388 C-44.79789203 107.59357912 -42.87254236 103.0913328 -40.9453125 98.58984375 C-40.54004333 97.64443222 -40.13477417 96.69902069 -39.71722412 95.72496033 C-35.21791618 85.20942574 -30.85327227 74.63913827 -26.5 64.0625 C-25.71072508 62.14630855 -24.92141844 60.23013016 -24.13208008 58.31396484 C-22.94794588 55.43903134 -21.76395951 52.56403745 -20.58045959 49.68884277 C-16.1767332 38.9930494 -11.74534932 28.30874864 -7.3125 17.625 C-6.56769713 15.82951311 -5.82290511 14.03402172 -5.078125 12.23852539 C-3.38576135 8.15887383 -1.69301259 4.07938229 0 0 Z M0 53 C-1.85584011 57.51886436 -3.70713411 62.0395535 -5.55419922 66.56201172 C-6.18347884 68.10093664 -6.81400811 69.63935118 -7.44580078 71.17724609 C-8.35255984 73.38506917 -9.25484123 75.59467556 -10.15625 77.8046875 C-10.44060913 78.49432587 -10.72496826 79.18396423 -11.01794434 79.89450073 C-12.49977165 83.33551611 -12.49977165 83.33551611 -13 87 C-3.76 87 5.48 87 15 87 C12.64875 80.8125 12.64875 80.8125 10.25 74.5 C9.7643457 73.21544922 9.27869141 71.93089844 8.77832031 70.60742188 C6.46508721 64.55800675 4.03230293 58.7245345 1 53 C0.67 53 0.34 53 0 53 Z " fill="#000000" transform="translate(87,807)"/>
<path d="M0 0 C56.29192547 0 56.29192547 0 68.03515625 10.88671875 C76.44144895 19.97122614 79.39486452 30.17644631 79.3125 42.375 C79.30730347 43.6273645 79.30730347 43.6273645 79.30200195 44.9050293 C79.19426051 51.01295696 78.45529261 56.35512166 76 62 C75.608125 63.010625 75.21625 64.02125 74.8125 65.0625 C68.21348141 75.75746116 60.0990562 81.22001091 48.11401367 84.39355469 C42.68649931 85.45054768 37.3196046 85.31231838 31.8125 85.1875 C27.914375 85.125625 24.01625 85.06375 20 85 C20 98.86 20 112.72 20 127 C13.4 127 6.8 127 0 127 C0 85.09 0 43.18 0 0 Z M20 20 C20 34.85 20 49.7 20 65 C23.96 65.0825 27.92 65.165 32 65.25 C33.23234375 65.28641602 34.4646875 65.32283203 35.734375 65.36035156 C43.08436142 65.43413705 49.03006191 64.79466206 54.51513672 59.55175781 C59.80896574 53.51090013 61.06285369 47.89861378 61 40 C60.09787422 33.89738442 57.91910948 29.1919692 53.98828125 24.47265625 C47.06047617 19.34145288 39.75040273 19.62156018 31.5 19.8125 C27.705 19.874375 23.91 19.93625 20 20 Z " fill="#000000" transform="translate(531,813)"/>
<path d="M0 0 C0 8.25 0 16.5 0 25 C-5 23 -5 23 -8.3125 21 C-17.73659206 15.61480454 -30.01919719 15.39042082 -40.375 18.125 C-51.91469626 22.22034826 -60.2820082 30.49673202 -65.77734375 41.23828125 C-70.39646235 51.67188141 -69.97482442 62.04788343 -66.390625 72.75 C-61.40528663 84.40112788 -52.5887633 92.26431677 -41 97 C-30.16200806 100.93296202 -19.48159326 99.30422841 -9 95 C-3.07678744 91.84803636 1.34930689 87.76412465 6 83 C6.66 83 7.32 83 8 83 C8.29110292 87.54030981 8.4682147 92.07822628 8.625 96.625 C8.70878906 97.91019531 8.79257812 99.19539062 8.87890625 100.51953125 C8.97559499 104.25171662 8.93155824 107.38112346 8 111 C5.07457422 114.0723936 1.92948945 115.50986172 -2 117 C-3.07765625 117.48210937 -4.1553125 117.96421875 -5.265625 118.4609375 C-22.10698503 123.6191551 -40.90430316 122.79125459 -56.625 114.8125 C-72.8344985 105.52782305 -83.97760595 92.19340804 -89.3125 74.0625 C-93.00678887 55.85765383 -90.28713321 38.18210188 -80.75 22.25 C-71.20462623 8.09651475 -56.78443075 -1.35561585 -40.1875 -5.3125 C-26.5755909 -7.54858714 -12.41919538 -6.20959769 0 0 Z " fill="#000000" transform="translate(343,819)"/>
<path d="M0 0 C6.6 0 13.2 0 20 0 C20 35.64 20 71.28 20 108 C37.49 108 54.98 108 73 108 C73 114.27 73 120.54 73 127 C48.91 127 24.82 127 0 127 C0 85.09 0 43.18 0 0 Z " fill="#000000" transform="translate(724,813)"/>
<path d="M0 0 C6.6 0 13.2 0 20 0 C20 41.91 20 83.82 20 127 C13.4 127 6.8 127 0 127 C0 85.09 0 43.18 0 0 Z " fill="#000000" transform="translate(485,813)"/>
</svg>
